<?xml version="1.0" standalone="no"?>
<!DOCTYPE svg PUBLIC "-//W3C//DTD SVG 20010904//EN"
 "http://www.w3.org/TR/2001/REC-SVG-20010904/DTD/svg10.dtd">
<svg version="1.0" xmlns="http://www.w3.org/2000/svg"
 width="1280.000000pt" height="1276.000000pt" viewBox="0 0 1280.000000 1276.000000"
 preserveAspectRatio="xMidYMid meet">
<metadata>
Created by potrace 1.15, written by Peter Selinger 2001-2017
</metadata>
<g transform="translate(0.000000,1276.000000) scale(0.100000,-0.100000)"
fill="#000000" stroke="none">
<path d="M12515 12699 c-830 -183 -1428 -331 -2025 -503 -2008 -577 -3569
-1323 -4630 -2212 -296 -247 -579 -529 -886 -879 -807 -922 -1389 -1923 -1653
-2844 -87 -304 -151 -671 -151 -872 l0 -59 873 -877 c479 -483 960 -967 1066
-1076 l195 -197 60 0 c164 0 481 48 736 111 1159 285 2493 1114 3575 2221 909
929 1694 2356 2309 4198 251 754 469 1545 695 2525 109 473 120 525 112 524
-3 0 -127 -27 -276 -60z m-3449 -2650 c115 -16 237 -54 349 -108 129 -63 209
-120 312 -223 176 -175 287 -386 329 -629 23 -135 15 -350 -19 -480 -111 -427
-419 -732 -857 -850 -74 -20 -109 -23 -270 -23 -159 -1 -197 2 -273 22 -536
135 -897 593 -897 1138 0 229 73 467 203 658 56 84 179 209 267 275 242 181
558 262 856 220z"/>
<path d="M2237 7629 c-351 -61 -691 -256 -949 -543 -320 -356 -551 -827 -653
-1332 -14 -67 -25 -133 -25 -147 l0 -25 108 40 c602 219 1077 291 1572 237
155 -17 504 -82 564 -105 8 -3 33 67 76 208 82 276 187 587 245 724 26 60 111
235 190 389 78 154 146 290 149 301 6 19 -4 26 -101 69 -222 97 -430 159 -638
190 -143 21 -401 19 -538 -6z"/>
<path d="M3595 4403 c-383 -50 -844 -300 -1238 -673 -462 -437 -795 -1151
-1045 -2242 -28 -120 -35 -168 -26 -168 44 0 544 122 759 185 775 228 1297
507 1662 889 387 405 652 902 675 1263 l3 53 -343 350 c-378 385 -341 357
-447 343z"/>
<path d="M7060 3367 c-412 -206 -590 -274 -1113 -427 l-219 -64 5 -31 c3 -16
19 -95 36 -175 58 -282 66 -361 66 -670 0 -311 -8 -393 -66 -646 -34 -150
-115 -419 -182 -608 l-46 -129 57 7 c165 19 424 89 627 168 362 141 666 335
905 577 333 337 490 707 491 1156 0 242 -42 472 -133 719 -38 104 -113 276
-120 276 -2 0 -140 -69 -308 -153z"/>
</g>
</svg>
